<svg width="1479" height="276" viewBox="0 0 1479 276" fill="none" xmlns="http://www.w3.org/2000/svg">
<path d="M217.324 211V37.5161H247.58V134.872C253.111 131.456 258.398 127.715 263.44 123.648C268.483 119.419 273.119 115.027 277.348 110.472C281.578 105.917 285.319 101.363 288.572 96.8081C291.826 92.0908 294.51 87.6175 296.624 83.3881H332.004C329.402 89.7321 325.986 95.9948 321.756 102.176C317.527 108.357 312.566 114.051 306.872 119.256C301.342 124.461 295.079 129.016 288.084 132.92C281.09 136.661 273.607 139.264 265.636 140.728V144.144C275.722 142.68 284.18 143.168 291.012 145.608C297.844 148.048 303.619 151.708 308.336 156.588C313.054 161.468 316.958 167.161 320.048 173.668C323.302 180.012 326.311 186.519 329.076 193.188L335.42 211H301.504L297.6 199.288C294.51 191.155 291.256 183.997 287.84 177.816C284.587 171.472 280.439 166.592 275.396 163.176C270.516 159.597 264.172 157.808 256.364 157.808H247.58V211H217.324Z" fill="#1C4A47"/>
<path d="M372.556 214.172C365.561 214.172 359.299 212.871 353.768 210.268C348.237 207.503 343.845 203.436 340.592 198.068C337.501 192.7 335.956 186.031 335.956 178.06C335.956 171.391 337.176 165.697 339.616 160.98C342.219 156.263 346.041 152.44 351.084 149.512C356.127 146.421 362.389 143.9 369.872 141.948C377.355 139.833 386.139 138.044 396.224 136.58C401.755 135.767 406.228 134.953 409.644 134.14C413.223 133.327 415.825 132.107 417.452 130.48C419.079 128.691 419.892 126.088 419.892 122.672C419.892 117.629 418.103 113.319 414.524 109.74C411.108 105.999 405.496 104.128 397.688 104.128C392.971 104.128 388.416 104.941 384.024 106.568C379.795 108.195 376.135 110.797 373.044 114.376C369.953 117.792 367.839 122.347 366.7 128.04L339.128 119.5C340.917 112.993 343.52 107.381 346.936 102.664C350.352 97.7841 354.581 93.6361 359.624 90.2201C364.667 86.8041 370.441 84.2828 376.948 82.6561C383.455 81.0294 390.612 80.2161 398.42 80.2161C410.295 80.2161 420.055 82.1681 427.7 86.0721C435.345 89.8134 441.039 95.7508 444.78 103.884C448.521 111.855 450.392 122.184 450.392 134.872V158.784C450.392 164.315 450.473 170.089 450.636 176.108C450.961 181.964 451.287 187.901 451.612 193.92C452.1 199.776 452.669 205.469 453.32 211H425.748C425.097 206.445 424.528 201.565 424.04 196.36C423.552 191.155 423.145 185.868 422.82 180.5H418.916C416.639 186.681 413.385 192.375 409.156 197.58C404.927 202.623 399.721 206.689 393.54 209.78C387.521 212.708 380.527 214.172 372.556 214.172ZM384.756 191.48C388.009 191.48 391.263 190.911 394.516 189.772C397.932 188.633 401.267 186.925 404.52 184.648C407.773 182.371 410.783 179.605 413.548 176.352C416.313 172.936 418.672 168.951 420.624 164.396L420.136 142.68L425.992 143.656C423.227 145.933 419.811 147.723 415.744 149.024C411.677 150.325 407.367 151.301 402.812 151.952C398.42 152.603 393.947 153.416 389.392 154.392C385 155.205 381.015 156.344 377.436 157.808C373.857 159.109 371.011 161.061 368.896 163.664C366.781 166.104 365.724 169.52 365.724 173.912C365.724 179.443 367.513 183.753 371.092 186.844C374.671 189.935 379.225 191.48 384.756 191.48Z" fill="#1C4A47"/>
<path d="M468.978 251.504V83.3881H494.842L494.598 118.036L498.746 118.28C500.372 110.147 502.975 103.233 506.554 97.5401C510.295 91.8468 515.012 87.5361 520.706 84.6081C526.399 81.6801 533.15 80.2161 540.958 80.2161C552.344 80.2161 562.023 83.0628 569.994 88.7561C577.964 94.2868 583.983 102.176 588.05 112.424C592.279 122.509 594.394 134.303 594.394 147.804C594.394 160.492 592.442 171.879 588.538 181.964C584.796 191.887 579.022 199.776 571.214 205.632C563.568 211.325 554.052 214.172 542.666 214.172C534.37 214.172 527.375 212.545 521.682 209.292C515.988 206.039 511.352 201.565 507.774 195.872C504.195 190.179 501.267 183.591 498.99 176.108H494.598C495.574 180.5 496.387 185.055 497.038 189.772C497.851 194.327 498.502 198.881 498.99 203.436C499.478 207.828 499.722 212.057 499.722 216.124V251.504H468.978ZM532.662 189.04C539.006 189.04 544.374 187.332 548.766 183.916C553.158 180.337 556.492 175.457 558.77 169.276C561.047 162.932 562.186 155.693 562.186 147.56C562.186 139.101 560.966 131.781 558.526 125.6C556.248 119.419 552.832 114.62 548.278 111.204C543.723 107.788 538.355 106.08 532.174 106.08C526.806 106.08 522.088 107.3 518.022 109.74C513.955 112.18 510.539 115.433 507.774 119.5C505.008 123.404 502.975 127.633 501.674 132.188C500.372 136.743 499.722 141.216 499.722 145.608V149.756C499.722 153.009 500.128 156.425 500.942 160.004C501.918 163.42 503.3 166.917 505.09 170.496C506.879 173.912 509.075 177.084 511.678 180.012C514.28 182.777 517.371 184.973 520.95 186.6C524.528 188.227 528.432 189.04 532.662 189.04Z" fill="#1C4A47"/>
<path d="M607.553 251.504V83.3881H633.417L633.173 118.036L637.321 118.28C638.947 110.147 641.55 103.233 645.129 97.5401C648.87 91.8468 653.587 87.5361 659.281 84.6081C664.974 81.6801 671.725 80.2161 679.533 80.2161C690.919 80.2161 700.598 83.0628 708.569 88.7561C716.539 94.2868 722.558 102.176 726.625 112.424C730.854 122.509 732.969 134.303 732.969 147.804C732.969 160.492 731.017 171.879 727.113 181.964C723.371 191.887 717.597 199.776 709.789 205.632C702.143 211.325 692.627 214.172 681.241 214.172C672.945 214.172 665.95 212.545 660.257 209.292C654.563 206.039 649.927 201.565 646.349 195.872C642.77 190.179 639.842 183.591 637.565 176.108H633.173C634.149 180.5 634.962 185.055 635.613 189.772C636.426 194.327 637.077 198.881 637.565 203.436C638.053 207.828 638.297 212.057 638.297 216.124V251.504H607.553ZM671.237 189.04C677.581 189.04 682.949 187.332 687.341 183.916C691.733 180.337 695.067 175.457 697.345 169.276C699.622 162.932 700.761 155.693 700.761 147.56C700.761 139.101 699.541 131.781 697.101 125.6C694.823 119.419 691.407 114.62 686.853 111.204C682.298 107.788 676.93 106.08 670.749 106.08C665.381 106.08 660.663 107.3 656.597 109.74C652.53 112.18 649.114 115.433 646.349 119.5C643.583 123.404 641.55 127.633 640.249 132.188C638.947 136.743 638.297 141.216 638.297 145.608V149.756C638.297 153.009 638.703 156.425 639.517 160.004C640.493 163.42 641.875 166.917 643.665 170.496C645.454 173.912 647.65 177.084 650.253 180.012C652.855 182.777 655.946 184.973 659.525 186.6C663.103 188.227 667.007 189.04 671.237 189.04Z" fill="#1C4A47"/>
<path d="M790.779 213.928C777.278 213.928 767.355 210.349 761.011 203.192C754.667 195.872 751.495 184.567 751.495 169.276V108.032H732.708L733.195 83.6321H745.64C750.357 83.6321 753.854 82.9001 756.132 81.4361C758.409 79.9721 759.791 77.3694 760.279 73.6281L763.208 55.0841H781.02V83.3881H814.692V109.008H781.02V168.056C781.02 174.075 782.402 178.467 785.167 181.232C788.095 183.997 792.406 185.38 798.099 185.38C801.19 185.38 804.2 185.055 807.128 184.404C810.218 183.591 813.065 182.289 815.667 180.5V209.78C810.625 211.407 805.989 212.464 801.76 212.952C797.693 213.603 794.033 213.928 790.779 213.928Z" fill="#1C4A47"/>
<path d="M826.323 211V83.3881H857.067V211H826.323Z" fill="#1C4A47"/>
<path d="M893.2 214V190.08H937.59C946.79 190.08 954.38 188.01 960.36 183.87C966.493 179.73 971.017 173.827 973.93 166.16C976.997 158.493 978.53 149.293 978.53 138.56C978.53 129.513 977.533 121.693 975.54 115.1C973.7 108.507 970.863 103.14 967.03 99C963.197 94.7067 958.367 91.4867 952.54 89.34C946.713 87.1933 939.89 86.12 932.07 86.12H893.2V62.2H931.15C949.09 62.2 963.733 65.19 975.08 71.17C986.58 77.15 995.013 85.7367 1000.38 96.93C1005.9 107.97 1008.66 121.31 1008.66 136.95C1008.66 147.99 1007.36 157.803 1004.75 166.39C1002.14 174.823 998.617 182.107 994.17 188.24C989.723 194.22 984.51 199.127 978.53 202.96C972.55 206.793 966.11 209.63 959.21 211.47C952.463 213.157 945.487 214 938.28 214H893.2ZM878.94 214V62.2H907.92V214H878.94ZM1019.51 214V153.74V93.71H1043.89L1043.43 135.11H1047.57C1048.95 125.297 1051.09 117.17 1054.01 110.73C1056.92 104.137 1060.98 99.23 1066.2 96.01C1071.41 92.6367 1077.85 90.95 1085.52 90.95C1087.05 90.95 1088.66 91.0267 1090.35 91.18C1092.19 91.3333 1094.18 91.7167 1096.33 92.33L1095.18 122.92C1092.72 122 1090.19 121.387 1087.59 121.08C1085.13 120.62 1082.83 120.39 1080.69 120.39C1074.71 120.39 1069.49 121.923 1065.05 124.99C1060.75 128.057 1057.23 132.427 1054.47 138.1C1051.86 143.62 1049.87 150.213 1048.49 157.88V214H1019.51ZM1127.97 216.99C1121.38 216.99 1115.48 215.763 1110.26 213.31C1105.05 210.703 1100.91 206.87 1097.84 201.81C1094.93 196.75 1093.47 190.463 1093.47 182.95C1093.47 176.663 1094.62 171.297 1096.92 166.85C1099.38 162.403 1102.98 158.8 1107.73 156.04C1112.49 153.127 1118.39 150.75 1125.44 148.91C1132.5 146.917 1140.78 145.23 1150.28 143.85C1155.5 143.083 1159.71 142.317 1162.93 141.55C1166.31 140.783 1168.76 139.633 1170.29 138.1C1171.83 136.413 1172.59 133.96 1172.59 130.74C1172.59 125.987 1170.91 121.923 1167.53 118.55C1164.31 115.023 1159.02 113.26 1151.66 113.26C1147.22 113.26 1142.92 114.027 1138.78 115.56C1134.8 117.093 1131.35 119.547 1128.43 122.92C1125.52 126.14 1123.53 130.433 1122.45 135.8L1096.46 127.75C1098.15 121.617 1100.6 116.327 1103.82 111.88C1107.04 107.28 1111.03 103.37 1115.78 100.15C1120.54 96.93 1125.98 94.5533 1132.11 93.02C1138.25 91.4867 1144.99 90.72 1152.35 90.72C1163.55 90.72 1172.75 92.56 1179.95 96.24C1187.16 99.7667 1192.53 105.363 1196.05 113.03C1199.58 120.543 1201.34 130.28 1201.34 142.24V164.78C1201.34 169.993 1201.42 175.437 1201.57 181.11C1201.88 186.63 1202.19 192.227 1202.49 197.9C1202.95 203.42 1203.49 208.787 1204.1 214H1178.11C1177.5 209.707 1176.96 205.107 1176.5 200.2C1176.04 195.293 1175.66 190.31 1175.35 185.25H1171.67C1169.53 191.077 1166.46 196.443 1162.47 201.35C1158.49 206.103 1153.58 209.937 1147.75 212.85C1142.08 215.61 1135.49 216.99 1127.97 216.99ZM1139.47 195.6C1142.54 195.6 1145.61 195.063 1148.67 193.99C1151.89 192.917 1155.04 191.307 1158.1 189.16C1161.17 187.013 1164.01 184.407 1166.61 181.34C1169.22 178.12 1171.44 174.363 1173.28 170.07L1172.82 149.6L1178.34 150.52C1175.74 152.667 1172.52 154.353 1168.68 155.58C1164.85 156.807 1160.79 157.727 1156.49 158.34C1152.35 158.953 1148.14 159.72 1143.84 160.64C1139.7 161.407 1135.95 162.48 1132.57 163.86C1129.2 165.087 1126.52 166.927 1124.52 169.38C1122.53 171.68 1121.53 174.9 1121.53 179.04C1121.53 184.253 1123.22 188.317 1126.59 191.23C1129.97 194.143 1134.26 195.6 1139.47 195.6ZM1229.28 214V134.42H1209.27V112.57L1240.78 114.18V110.04C1236.03 108.66 1232.04 106.667 1228.82 104.06C1225.6 101.3 1223.23 98.08 1221.69 94.4C1220.31 90.72 1219.62 86.7333 1219.62 82.44C1219.62 75.8467 1221.23 70.1733 1224.45 65.42C1227.67 60.6667 1232.2 56.9867 1238.02 54.38C1243.85 51.62 1250.75 50.24 1258.72 50.24C1265.32 50.24 1271.3 51.0833 1276.66 52.77C1282.18 54.4567 1286.63 56.5267 1290 58.98L1287.7 85.66C1284.33 82.9 1280.42 80.7533 1275.97 79.22C1271.53 77.5333 1267.23 76.69 1263.09 76.69C1258.34 76.69 1254.43 78.07 1251.36 80.83C1248.3 83.4367 1246.76 87.73 1246.76 93.71C1246.76 97.5433 1247.45 100.687 1248.83 103.14C1250.21 105.44 1251.98 107.28 1254.12 108.66C1256.42 109.887 1258.65 110.807 1260.79 111.42H1288.85V134.42H1257.57V214H1229.28ZM1342.36 216.76C1329.63 216.76 1320.28 213.387 1314.3 206.64C1308.32 199.74 1305.33 189.083 1305.33 174.67V116.94H1287.62L1288.08 93.94H1299.81C1304.26 93.94 1307.55 93.25 1309.7 91.87C1311.85 90.49 1313.15 88.0367 1313.61 84.51L1316.37 67.03H1333.16V93.71H1364.9V117.86H1333.16V173.52C1333.16 179.193 1334.46 183.333 1337.07 185.94C1339.83 188.547 1343.89 189.85 1349.26 189.85C1352.17 189.85 1355.01 189.543 1357.77 188.93C1360.68 188.163 1363.37 186.937 1365.82 185.25V212.85C1361.07 214.383 1356.7 215.38 1352.71 215.84C1348.88 216.453 1345.43 216.76 1342.36 216.76ZM1425.12 216.99C1417 216.99 1409.64 216.147 1403.04 214.46C1396.6 212.927 1391.08 210.703 1386.48 207.79C1381.88 204.723 1378.2 201.12 1375.44 196.98C1372.68 192.687 1371 187.933 1370.38 182.72L1393.15 174.21C1393.46 178.197 1394.99 181.8 1397.75 185.02C1400.51 188.087 1404.35 190.54 1409.25 192.38C1414.16 194.22 1420.06 195.14 1426.96 195.14C1434.63 195.14 1440.53 193.99 1444.67 191.69C1448.97 189.237 1451.11 185.787 1451.11 181.34C1451.11 178.12 1449.96 175.59 1447.66 173.75C1445.36 171.757 1441.99 170.147 1437.54 168.92C1433.25 167.54 1428.04 166.237 1421.9 165.01C1416.23 163.783 1410.48 162.403 1404.65 160.87C1398.98 159.183 1393.69 157.037 1388.78 154.43C1384.03 151.67 1380.12 148.143 1377.05 143.85C1374.14 139.403 1372.68 133.807 1372.68 127.06C1372.68 119.7 1374.6 113.337 1378.43 107.97C1382.42 102.603 1388.09 98.3867 1395.45 95.32C1402.97 92.2533 1412.01 90.72 1422.59 90.72C1432.56 90.72 1441.15 92.1 1448.35 94.86C1455.71 97.62 1461.69 101.607 1466.29 106.82C1470.89 111.88 1473.81 117.937 1475.03 124.99L1451.11 132.58C1450.65 128.287 1449.2 124.683 1446.74 121.77C1444.29 118.703 1440.99 116.403 1436.85 114.87C1432.71 113.337 1427.88 112.57 1422.36 112.57C1415.31 112.57 1409.79 113.797 1405.8 116.25C1401.82 118.703 1399.82 122 1399.82 126.14C1399.82 129.513 1401.05 132.197 1403.5 134.19C1406.11 136.183 1409.64 137.793 1414.08 139.02C1418.68 140.247 1423.9 141.473 1429.72 142.7C1435.86 143.927 1441.76 145.383 1447.43 147.07C1453.26 148.603 1458.47 150.673 1463.07 153.28C1467.67 155.887 1471.35 159.337 1474.11 163.63C1476.87 167.77 1478.25 173.137 1478.25 179.73C1478.25 187.703 1476.11 194.527 1471.81 200.2C1467.52 205.72 1461.39 209.937 1453.41 212.85C1445.59 215.61 1436.16 216.99 1425.12 216.99Z" fill="#1C4A47"/>
<path d="M826.906 58.125C830.34 61.375 835.164 63 841.377 63C847.755 63 852.579 61.375 855.849 58.125C859.283 54.6719 861 49.7969 861 43.5C861 37 859.365 32.125 856.094 28.875C852.824 25.625 847.918 24 841.377 24C835.164 24 830.34 25.7266 826.906 29.1797C823.635 32.4297 822 37.2031 822 43.5C822 49.7969 823.635 54.6719 826.906 58.125Z" fill="#ED7846"/>
<path d="M1.71024 165.454C6.72468 179.231 15.0158 184.585 27.0641 188.065L29.4155 184.418C31.9806 180.313 32.9566 174.63 33.23 169.457C33.3412 166.626 33.7884 163.673 37.0366 162.49C40.2849 161.308 43.5035 163.181 44.6042 166.205C44.9711 167.213 45.3994 169.087 45.2676 171.164C45.0144 175.696 43.7135 184.668 39.3262 191.085L32.4043 201.343C24.9735 212.292 21.7272 220.45 24.9887 229.411C30.9408 245.764 46.0146 252.328 59.5677 247.395C65.2801 245.316 72.9568 239.224 77.4351 230.618L89.1602 208.465C91.9592 203.26 93.1073 194.216 92.9735 189.318C92.8911 186.304 93.919 183.9 96.8312 182.84C99.9674 181.699 103.369 183.378 104.552 186.626C105 187.858 104.97 189.518 104.94 191.178C104.91 194.233 105.117 203.164 99.2949 215.05C120.449 223.334 127.384 223.22 136.233 219.999C148.89 215.392 157.47 199.585 152.129 184.911C149.52 177.743 144.916 173.457 136.096 169.437L121.052 162.608C114.941 159.758 108.952 155.85 103.329 151.554C101.944 150.536 101.017 149.732 100.365 147.94C99.2641 144.915 100.943 141.513 103.856 140.453C105.984 139.679 107.919 140.116 109.65 141.389C117.045 147.069 124.41 151.619 129.981 154.031L147.678 147.589C165.376 141.148 173.497 125.127 167.178 107.765C160.819 90.2921 144.299 83.2397 126.601 89.681L22.0971 127.717C4.3997 134.159 -3.83419 150.221 1.71024 165.454Z" fill="#1C4A47"/>
<circle cx="57" cy="78" r="46" fill="#ED7846" stroke="white" stroke-width="12"/>
</svg>
