<svg width="168" height="250" viewBox="0 0 168 250" fill="none" xmlns="http://www.w3.org/2000/svg">
  <!-- placeholder: kapptivate mark recoloré en jaune (à remplacer par le vrai logo-yellow.svg) -->
  <path d="M1.71024 165.454C6.72468 179.231 15.0158 184.585 27.0641 188.065L29.4155 184.418C31.9806 180.313 32.9566 174.63 33.23 169.457C33.3412 166.626 33.7884 163.673 37.0366 162.49C40.2849 161.308 43.5035 163.181 44.6042 166.205C44.9711 167.213 45.3994 169.087 45.2676 171.164C45.0144 175.696 43.7135 184.668 39.3262 191.085L32.4043 201.343C24.9735 212.292 21.7272 220.45 24.9887 229.411C30.9408 245.764 46.0146 252.328 59.5677 247.395C65.2801 245.316 72.9568 239.224 77.4351 230.618L89.1602 208.465C91.9592 203.26 93.1073 194.216 92.9735 189.318C92.8911 186.304 93.919 183.9 96.8312 182.84C99.9674 181.699 103.369 183.378 104.552 186.626C105 187.858 104.97 189.518 104.94 191.178C104.91 194.233 105.117 203.164 99.2949 215.05C120.449 223.334 127.384 223.22 136.233 219.999C148.89 215.392 157.47 199.585 152.129 184.911C149.52 177.743 144.916 173.457 136.096 169.437L121.052 162.608C114.941 159.758 108.952 155.85 103.329 151.554C101.944 150.536 101.017 149.732 100.365 147.94C99.2641 144.915 100.943 141.513 103.856 140.453C105.984 139.679 107.919 140.116 109.65 141.389C117.045 147.069 124.41 151.619 129.981 154.031L147.678 147.589C165.376 141.148 173.497 125.127 167.178 107.765C160.819 90.2921 144.299 83.2397 126.601 89.681L22.0971 127.717C4.3997 134.159 -3.83419 150.221 1.71024 165.454Z" fill="#FFD24D"/>
  <circle cx="57" cy="78" r="46" fill="#FFD24D"/>
</svg>
