<svg width="1556" height="276" viewBox="0 0 1556 276" fill="none" xmlns="http://www.w3.org/2000/svg">
<path d="M217.324 212V38.5161H247.58V135.872C253.111 132.456 258.398 128.715 263.44 124.648C268.483 120.419 273.119 116.027 277.348 111.472C281.578 106.917 285.319 102.363 288.572 97.8081C291.826 93.0908 294.51 88.6175 296.624 84.3881H332.004C329.402 90.7321 325.986 96.9948 321.756 103.176C317.527 109.357 312.566 115.051 306.872 120.256C301.342 125.461 295.079 130.016 288.084 133.92C281.09 137.661 273.607 140.264 265.636 141.728V145.144C275.722 143.68 284.18 144.168 291.012 146.608C297.844 149.048 303.619 152.708 308.336 157.588C313.054 162.468 316.958 168.161 320.048 174.668C323.302 181.012 326.311 187.519 329.076 194.188L335.42 212H301.504L297.6 200.288C294.51 192.155 291.256 184.997 287.84 178.816C284.587 172.472 280.439 167.592 275.396 164.176C270.516 160.597 264.172 158.808 256.364 158.808H247.58V212H217.324Z" fill="#1C4A47"/>
<path d="M372.556 215.172C365.561 215.172 359.299 213.871 353.768 211.268C348.237 208.503 343.845 204.436 340.592 199.068C337.501 193.7 335.956 187.031 335.956 179.06C335.956 172.391 337.176 166.697 339.616 161.98C342.219 157.263 346.041 153.44 351.084 150.512C356.127 147.421 362.389 144.9 369.872 142.948C377.355 140.833 386.139 139.044 396.224 137.58C401.755 136.767 406.228 135.953 409.644 135.14C413.223 134.327 415.825 133.107 417.452 131.48C419.079 129.691 419.892 127.088 419.892 123.672C419.892 118.629 418.103 114.319 414.524 110.74C411.108 106.999 405.496 105.128 397.688 105.128C392.971 105.128 388.416 105.941 384.024 107.568C379.795 109.195 376.135 111.797 373.044 115.376C369.953 118.792 367.839 123.347 366.7 129.04L339.128 120.5C340.917 113.993 343.52 108.381 346.936 103.664C350.352 98.7841 354.581 94.6361 359.624 91.2201C364.667 87.8041 370.441 85.2828 376.948 83.6561C383.455 82.0294 390.612 81.2161 398.42 81.2161C410.295 81.2161 420.055 83.1681 427.7 87.0721C435.345 90.8134 441.039 96.7508 444.78 104.884C448.521 112.855 450.392 123.184 450.392 135.872V159.784C450.392 165.315 450.473 171.089 450.636 177.108C450.961 182.964 451.287 188.901 451.612 194.92C452.1 200.776 452.669 206.469 453.32 212H425.748C425.097 207.445 424.528 202.565 424.04 197.36C423.552 192.155 423.145 186.868 422.82 181.5H418.916C416.639 187.681 413.385 193.375 409.156 198.58C404.927 203.623 399.721 207.689 393.54 210.78C387.521 213.708 380.527 215.172 372.556 215.172ZM384.756 192.48C388.009 192.48 391.263 191.911 394.516 190.772C397.932 189.633 401.267 187.925 404.52 185.648C407.773 183.371 410.783 180.605 413.548 177.352C416.313 173.936 418.672 169.951 420.624 165.396L420.136 143.68L425.992 144.656C423.227 146.933 419.811 148.723 415.744 150.024C411.677 151.325 407.367 152.301 402.812 152.952C398.42 153.603 393.947 154.416 389.392 155.392C385 156.205 381.015 157.344 377.436 158.808C373.857 160.109 371.011 162.061 368.896 164.664C366.781 167.104 365.724 170.52 365.724 174.912C365.724 180.443 367.513 184.753 371.092 187.844C374.671 190.935 379.225 192.48 384.756 192.48Z" fill="#1C4A47"/>
<path d="M468.978 252.504V84.3881H494.842L494.598 119.036L498.746 119.28C500.372 111.147 502.975 104.233 506.554 98.5401C510.295 92.8468 515.012 88.5361 520.706 85.6081C526.399 82.6801 533.15 81.2161 540.958 81.2161C552.344 81.2161 562.023 84.0628 569.994 89.7561C577.964 95.2868 583.983 103.176 588.05 113.424C592.279 123.509 594.394 135.303 594.394 148.804C594.394 161.492 592.442 172.879 588.538 182.964C584.796 192.887 579.022 200.776 571.214 206.632C563.568 212.325 554.052 215.172 542.666 215.172C534.37 215.172 527.375 213.545 521.682 210.292C515.988 207.039 511.352 202.565 507.774 196.872C504.195 191.179 501.267 184.591 498.99 177.108H494.598C495.574 181.5 496.387 186.055 497.038 190.772C497.851 195.327 498.502 199.881 498.99 204.436C499.478 208.828 499.722 213.057 499.722 217.124V252.504H468.978ZM532.662 190.04C539.006 190.04 544.374 188.332 548.766 184.916C553.158 181.337 556.492 176.457 558.77 170.276C561.047 163.932 562.186 156.693 562.186 148.56C562.186 140.101 560.966 132.781 558.526 126.6C556.248 120.419 552.832 115.62 548.278 112.204C543.723 108.788 538.355 107.08 532.174 107.08C526.806 107.08 522.088 108.3 518.022 110.74C513.955 113.18 510.539 116.433 507.774 120.5C505.008 124.404 502.975 128.633 501.674 133.188C500.372 137.743 499.722 142.216 499.722 146.608V150.756C499.722 154.009 500.128 157.425 500.942 161.004C501.918 164.42 503.3 167.917 505.09 171.496C506.879 174.912 509.075 178.084 511.678 181.012C514.28 183.777 517.371 185.973 520.95 187.6C524.528 189.227 528.432 190.04 532.662 190.04Z" fill="#1C4A47"/>
<path d="M607.553 252.504V84.3881H633.417L633.173 119.036L637.321 119.28C638.947 111.147 641.55 104.233 645.129 98.5401C648.87 92.8468 653.587 88.5361 659.281 85.6081C664.974 82.6801 671.725 81.2161 679.533 81.2161C690.919 81.2161 700.598 84.0628 708.569 89.7561C716.539 95.2868 722.558 103.176 726.625 113.424C730.854 123.509 732.969 135.303 732.969 148.804C732.969 161.492 731.017 172.879 727.113 182.964C723.371 192.887 717.597 200.776 709.789 206.632C702.143 212.325 692.627 215.172 681.241 215.172C672.945 215.172 665.95 213.545 660.257 210.292C654.563 207.039 649.927 202.565 646.349 196.872C642.77 191.179 639.842 184.591 637.565 177.108H633.173C634.149 181.5 634.962 186.055 635.613 190.772C636.426 195.327 637.077 199.881 637.565 204.436C638.053 208.828 638.297 213.057 638.297 217.124V252.504H607.553ZM671.237 190.04C677.581 190.04 682.949 188.332 687.341 184.916C691.733 181.337 695.067 176.457 697.345 170.276C699.622 163.932 700.761 156.693 700.761 148.56C700.761 140.101 699.541 132.781 697.101 126.6C694.823 120.419 691.407 115.62 686.853 112.204C682.298 108.788 676.93 107.08 670.749 107.08C665.381 107.08 660.663 108.3 656.597 110.74C652.53 113.18 649.114 116.433 646.349 120.5C643.583 124.404 641.55 128.633 640.249 133.188C638.947 137.743 638.297 142.216 638.297 146.608V150.756C638.297 154.009 638.703 157.425 639.517 161.004C640.493 164.42 641.875 167.917 643.665 171.496C645.454 174.912 647.65 178.084 650.253 181.012C652.855 183.777 655.946 185.973 659.525 187.6C663.103 189.227 667.007 190.04 671.237 190.04Z" fill="#1C4A47"/>
<path d="M790.779 214.928C777.278 214.928 767.355 211.349 761.011 204.192C754.667 196.872 751.495 185.567 751.495 170.276V109.032H732.708L733.195 84.6321H745.64C750.357 84.6321 753.854 83.9001 756.132 82.4361C758.409 80.9721 759.791 78.3694 760.279 74.6281L763.208 56.0841H781.02V84.3881H814.692V110.008H781.02V169.056C781.02 175.075 782.402 179.467 785.167 182.232C788.095 184.997 792.406 186.38 798.099 186.38C801.19 186.38 804.2 186.055 807.128 185.404C810.218 184.591 813.065 183.289 815.667 181.5V210.78C810.625 212.407 805.989 213.464 801.76 213.952C797.693 214.603 794.033 214.928 790.779 214.928Z" fill="#1C4A47"/>
<path d="M826.323 212V84.3881H857.067V212H826.323Z" fill="#1C4A47"/>
<path d="M893.2 214V190.08H937.59C946.79 190.08 954.38 188.01 960.36 183.87C966.493 179.73 971.017 173.827 973.93 166.16C976.997 158.493 978.53 149.293 978.53 138.56C978.53 129.513 977.533 121.693 975.54 115.1C973.7 108.507 970.863 103.14 967.03 99C963.197 94.7067 958.367 91.4867 952.54 89.34C946.713 87.1933 939.89 86.12 932.07 86.12H893.2V62.2H931.15C949.09 62.2 963.733 65.19 975.08 71.17C986.58 77.15 995.013 85.7367 1000.38 96.93C1005.9 107.97 1008.66 121.31 1008.66 136.95C1008.66 147.99 1007.36 157.803 1004.75 166.39C1002.14 174.823 998.617 182.107 994.17 188.24C989.723 194.22 984.51 199.127 978.53 202.96C972.55 206.793 966.11 209.63 959.21 211.47C952.463 213.157 945.487 214 938.28 214H893.2ZM878.94 214V62.2H907.92V214H878.94ZM1073.11 216.99C1063.45 216.99 1054.79 215.61 1047.12 212.85C1039.61 210.09 1033.25 206.103 1028.03 200.89C1022.82 195.523 1018.83 189.083 1016.07 181.57C1013.31 174.057 1011.93 165.547 1011.93 156.04C1011.93 146.533 1013.24 137.793 1015.84 129.82C1018.6 121.847 1022.51 114.947 1027.57 109.12C1032.63 103.293 1038.77 98.77 1045.97 95.55C1053.33 92.33 1061.69 90.72 1071.04 90.72C1079.78 90.72 1087.6 92.1767 1094.5 95.09C1101.4 98.0033 1107.23 102.373 1111.98 108.2C1116.74 113.873 1120.26 121.003 1122.56 129.59C1124.86 138.023 1125.63 147.837 1124.86 159.03L1030.79 159.72V142.93L1108.07 142.24L1097.95 151.67C1098.87 142.93 1098.18 135.8 1095.88 130.28C1093.58 124.607 1090.29 120.467 1085.99 117.86C1081.7 115.1 1076.79 113.72 1071.27 113.72C1064.99 113.72 1059.47 115.407 1054.71 118.78C1049.96 122 1046.28 126.753 1043.67 133.04C1041.22 139.173 1039.99 146.687 1039.99 155.58C1039.99 168.92 1042.91 178.887 1048.73 185.48C1054.71 192.073 1062.84 195.37 1073.11 195.37C1077.71 195.37 1081.55 194.833 1084.61 193.76C1087.83 192.533 1090.52 191 1092.66 189.16C1094.81 187.167 1096.5 184.943 1097.72 182.49C1099.1 180.037 1100.18 177.43 1100.94 174.67L1126.24 180.42C1125.02 186.093 1123.02 191.153 1120.26 195.6C1117.5 200.047 1113.9 203.88 1109.45 207.1C1105.16 210.32 1100.02 212.773 1094.04 214.46C1088.06 216.147 1081.09 216.99 1073.11 216.99ZM1189.29 216.99C1181.17 216.99 1173.81 216.147 1167.21 214.46C1160.77 212.927 1155.25 210.703 1150.65 207.79C1146.05 204.723 1142.37 201.12 1139.61 196.98C1136.85 192.687 1135.17 187.933 1134.55 182.72L1157.32 174.21C1157.63 178.197 1159.16 181.8 1161.92 185.02C1164.68 188.087 1168.52 190.54 1173.42 192.38C1178.33 194.22 1184.23 195.14 1191.13 195.14C1198.8 195.14 1204.7 193.99 1208.84 191.69C1213.14 189.237 1215.28 185.787 1215.28 181.34C1215.28 178.12 1214.13 175.59 1211.83 173.75C1209.53 171.757 1206.16 170.147 1201.71 168.92C1197.42 167.54 1192.21 166.237 1186.07 165.01C1180.4 163.783 1174.65 162.403 1168.82 160.87C1163.15 159.183 1157.86 157.037 1152.95 154.43C1148.2 151.67 1144.29 148.143 1141.22 143.85C1138.31 139.403 1136.85 133.807 1136.85 127.06C1136.85 119.7 1138.77 113.337 1142.6 107.97C1146.59 102.603 1152.26 98.3867 1159.62 95.32C1167.14 92.2533 1176.18 90.72 1186.76 90.72C1196.73 90.72 1205.32 92.1 1212.52 94.86C1219.88 97.62 1225.86 101.607 1230.46 106.82C1235.06 111.88 1237.98 117.937 1239.2 124.99L1215.28 132.58C1214.82 128.287 1213.37 124.683 1210.91 121.77C1208.46 118.703 1205.16 116.403 1201.02 114.87C1196.88 113.337 1192.05 112.57 1186.53 112.57C1179.48 112.57 1173.96 113.797 1169.97 116.25C1165.99 118.703 1163.99 122 1163.99 126.14C1163.99 129.513 1165.22 132.197 1167.67 134.19C1170.28 136.183 1173.81 137.793 1178.25 139.02C1182.85 140.247 1188.07 141.473 1193.89 142.7C1200.03 143.927 1205.93 145.383 1211.6 147.07C1217.43 148.603 1222.64 150.673 1227.24 153.28C1231.84 155.887 1235.52 159.337 1238.28 163.63C1241.04 167.77 1242.42 173.137 1242.42 179.73C1242.42 187.703 1240.28 194.527 1235.98 200.2C1231.69 205.72 1225.56 209.937 1217.58 212.85C1209.76 215.61 1200.33 216.99 1189.29 216.99ZM1249.3 214V93.71H1278.28V214H1249.3ZM1263.79 74.85C1257.96 74.85 1253.44 73.6233 1250.22 71.17C1247.15 68.5633 1245.62 64.8833 1245.62 60.13C1245.62 55.3767 1247.15 51.7733 1250.22 49.32C1253.44 46.7133 1257.96 45.41 1263.79 45.41C1269.92 45.41 1274.52 46.6367 1277.59 49.09C1280.66 51.5433 1282.19 55.2233 1282.19 60.13C1282.19 64.8833 1280.58 68.5633 1277.36 71.17C1274.29 73.6233 1269.77 74.85 1263.79 74.85ZM1348.33 255.4C1335.3 255.4 1324.57 254.403 1316.13 252.41C1307.85 250.417 1301.72 247.427 1297.73 243.44C1293.75 239.453 1291.75 234.547 1291.75 228.72C1291.75 221.667 1294.51 215.917 1300.03 211.47C1305.71 206.87 1314.06 204.033 1325.1 202.96V198.36C1316.82 198.513 1310.54 197.67 1306.24 195.83C1301.95 193.837 1299.8 190.693 1299.8 186.4C1299.8 182.26 1301.87 178.58 1306.01 175.36C1310.31 172.14 1317.36 169.457 1327.17 167.31V162.71C1317.82 162.25 1310.54 159.337 1305.32 153.97C1300.11 148.45 1297.5 141.32 1297.5 132.58C1297.5 124.76 1299.65 117.86 1303.94 111.88C1308.24 105.9 1314.52 101.223 1322.8 97.85C1331.24 94.3233 1341.43 92.56 1353.39 92.56H1412.96V115.56L1375.24 110.04V115.1C1384.75 116.633 1391.73 119.317 1396.17 123.15C1400.77 126.983 1403.07 132.197 1403.07 138.79C1403.07 145.077 1401.08 150.673 1397.09 155.58C1393.11 160.333 1387.28 164.09 1379.61 166.85C1372.1 169.457 1362.98 170.76 1352.24 170.76C1350.25 170.76 1348.1 170.683 1345.8 170.53C1343.5 170.377 1339.9 169.993 1334.99 169.38C1331.77 171.68 1329.17 173.75 1327.17 175.59C1325.18 177.277 1324.18 178.887 1324.18 180.42C1324.18 181.647 1324.95 182.72 1326.48 183.64C1328.02 184.407 1330.01 184.943 1332.46 185.25C1334.92 185.557 1337.29 185.71 1339.59 185.71H1371.56C1374.63 185.71 1378.54 185.94 1383.29 186.4C1388.2 186.86 1393.03 188.087 1397.78 190.08C1402.69 192.073 1406.75 195.217 1409.97 199.51C1413.35 203.803 1415.03 209.86 1415.03 217.68C1415.03 226.42 1412.5 233.55 1407.44 239.07C1402.54 244.743 1395.1 248.883 1385.13 251.49C1375.32 254.097 1363.05 255.4 1348.33 255.4ZM1350.86 231.94C1360.37 231.94 1367.96 231.403 1373.63 230.33C1379.31 229.257 1383.37 227.493 1385.82 225.04C1388.28 222.74 1389.5 219.75 1389.5 216.07C1389.5 212.697 1388.74 210.09 1387.2 208.25C1385.67 206.257 1383.68 204.877 1381.22 204.11C1378.92 203.343 1376.55 202.883 1374.09 202.73C1371.64 202.577 1369.57 202.5 1367.88 202.5H1339.59C1332.23 203.573 1327.02 205.643 1323.95 208.71C1321.04 211.777 1319.58 215.15 1319.58 218.83C1319.58 222.51 1320.81 225.27 1323.26 227.11C1325.72 229.103 1329.24 230.407 1333.84 231.02C1338.6 231.633 1344.27 231.94 1350.86 231.94ZM1351.55 154.89C1359.53 154.89 1365.58 153.05 1369.72 149.37C1373.86 145.537 1375.93 140.553 1375.93 134.42C1375.93 127.827 1373.79 122.46 1369.49 118.32C1365.35 114.027 1359.3 111.88 1351.32 111.88C1343.35 111.88 1337.14 113.95 1332.69 118.09C1328.4 122.23 1326.25 127.52 1326.25 133.96C1326.25 138.1 1327.17 141.78 1329.01 145C1331.01 148.067 1333.84 150.52 1337.52 152.36C1341.36 154.047 1346.03 154.89 1351.55 154.89ZM1429.23 214V140.63V93.71H1453.38L1452.69 130.51H1456.83C1458.98 121.463 1461.81 114.027 1465.34 108.2C1469.02 102.373 1473.7 98.0033 1479.37 95.09C1485.04 92.1767 1491.64 90.72 1499.15 90.72C1512.8 90.72 1523.15 95.55 1530.2 105.21C1537.41 114.87 1541.01 129.82 1541.01 150.06V214H1511.8V153.05C1511.8 140.017 1509.81 130.51 1505.82 124.53C1501.99 118.397 1496.24 115.33 1488.57 115.33C1482.13 115.33 1476.69 117.4 1472.24 121.54C1467.79 125.527 1464.34 130.893 1461.89 137.64C1459.59 144.233 1458.36 151.517 1458.21 159.49V214H1429.23Z" fill="#1C4A47"/>
<path d="M826.906 59.125C830.34 62.375 835.164 64 841.377 64C847.755 64 852.579 62.375 855.849 59.125C859.283 55.6719 861 50.7969 861 44.5C861 38 859.365 33.125 856.094 29.875C852.824 26.625 847.918 25 841.377 25C835.164 25 830.34 26.7266 826.906 30.1797C823.635 33.4297 822 38.2031 822 44.5C822 50.7969 823.635 55.6719 826.906 59.125Z" fill="#ED7846"/>
<path d="M1.71024 166.454C6.72468 180.231 15.0158 185.585 27.0641 189.065L29.4155 185.418C31.9806 181.313 32.9566 175.63 33.23 170.457C33.3412 167.626 33.7884 164.673 37.0366 163.49C40.2849 162.308 43.5035 164.181 44.6042 167.205C44.9711 168.213 45.3994 170.087 45.2676 172.164C45.0144 176.696 43.7135 185.668 39.3262 192.085L32.4043 202.343C24.9735 213.292 21.7272 221.45 24.9887 230.411C30.9408 246.764 46.0146 253.328 59.5677 248.395C65.2801 246.316 72.9568 240.224 77.4351 231.618L89.1602 209.465C91.9592 204.26 93.1073 195.216 92.9735 190.318C92.8911 187.304 93.919 184.9 96.8312 183.84C99.9674 182.699 103.369 184.378 104.552 187.626C105 188.858 104.97 190.518 104.94 192.178C104.91 195.233 105.117 204.164 99.2949 216.05C120.449 224.334 127.384 224.22 136.233 220.999C148.89 216.392 157.47 200.585 152.129 185.911C149.52 178.743 144.916 174.457 136.096 170.437L121.052 163.608C114.941 160.758 108.952 156.85 103.329 152.554C101.944 151.536 101.017 150.732 100.365 148.94C99.2641 145.915 100.943 142.513 103.856 141.453C105.984 140.679 107.919 141.116 109.65 142.389C117.045 148.069 124.41 152.619 129.981 155.031L147.678 148.589C165.376 142.148 173.497 126.127 167.178 108.765C160.819 91.2921 144.299 84.2397 126.601 90.681L22.0971 128.717C4.3997 135.159 -3.83419 151.221 1.71024 166.454Z" fill="#1C4A47"/>
<circle cx="57" cy="79" r="46" fill="#ED7846" stroke="white" stroke-width="12"/>
</svg>
